Patient4_TMGait_0pt8_01_left_29_GRF.mot
version=1
nRows=45
nColumns=19
inDegrees=no
endheader
time	F1x	F1y	F1z	M1x	M1y	M1z	F2x	F2y	F2z	M2x	M2y	M2z	EC1x	EC1y	EC1z	EC2x	EC2y	EC2z
31.82	-15.9937	37.5961	-7.1134	-9.7712	4.3127	50.5955	-78.081	664.4194	-44.9714	214.9439	81.4181	797.127	-0.0592	0.0182	-0.0073	-0.0462	0.0165	0.9585
31.8314	-11.3139	26.2767	-4.8811	-6.951	2.8924	35.5567	-65.7291	674.4172	-52.372	217.9674	84.6489	798.7899	-0.0592	0.0182	-0.0073	-0.0462	0.0165	0.9585
31.8429	-7.2702	16.8207	-2.9878	-4.5825	1.6923	22.9165	-55.031	685.6802	-58.3341	221.4903	86.8935	801.9515	-0.0592	0.0182	-0.0073	-0.0462	0.0165	0.9585
31.8543	-4.0602	9.6866	-1.518	-2.7872	0.77596	13.2873	-46.3282	697.9828	-62.564	225.4989	87.9802	806.6078	-0.0592	0.0182	-0.0073	-0.0462	0.0165	0.9585
31.8657	-1.8219	4.8443	-0.49575	-1.5607	0.13474	6.7082	-39.4646	711.2699	-65.0152	230.0154	87.8222	812.6986	-0.0592	0.0182	-0.0073	-0.0462	0.0165	0.9585
31.8771	-0.35825	1.9051	0.1494	-0.81099	-0.26258	2.6235	-33.9261	725.2621	-65.9472	234.9777	86.5285	819.7424	-0.0592	0.0182	-0.0073	-0.0462	0.0165	0.9585
31.8886	0.40325	0.41569	0.52002	-0.42423	-0.51206	0.50755	-29.1484	739.6101	-65.6187	240.2732	84.1848	827.1686	-0.0592	0.0182	-0.0073	-0.0462	0.0165	0.9585
31.9	0.70661	-0.14956	0.69194	-0.27163	-0.64556	-0.39172	-24.526	753.6623	-64.3535	245.6706	80.9282	834.0727	-0.0592	0.0182	-0.0073	-0.0462	0.0165	0.9585
31.9114	0.63499	-0.18612	0.75952	-0.24735	-0.75287	-0.54585	-19.6374	766.4912	-62.4532	250.8283	76.9186	839.3674	-0.0592	0.0182	-0.0073	-0.0462	0.0165	0.9585
31.9229	0.38113	-0.11483	0.76238	-0.23679	-0.83843	-0.54033	-14.1457	777.087	-60.1613	255.3585	72.2906	841.9205	-0.0592	0.0182	-0.0073	-0.0462	0.0165	0.9585
31.9343	-0.029048	-0.17031	0.75012	-0.1615	-0.95725	-0.62317	-7.9799	784.4491	-57.7671	258.8614	67.3003	840.7396	-0.0592	0.0182	-0.0073	-0.0462	0.0165	0.9585
31.9457	-0.44662	-0.58563	0.74783	0.049052	-1.0978	-1.1206	-1.1969	787.7913	-55.4593	261.0021	62.153	835.1306	-0.0592	0.0182	-0.0073	-0.0462	0.0165	0.9585
31.9571	-0.87676	-1.4328	0.74803	0.42167	-1.2514	-2.1002	5.9876	786.6721	-53.5179	261.5502	57.2025	824.8746	-0.0592	0.0182	-0.0073	-0.0462	0.0165	0.9585
31.9686	-1.1961	-2.7664	0.78493	0.97016	-1.407	-3.6775	13.197	780.9167	-52.1092	260.3883	52.7411	810.0428	-0.0592	0.0182	-0.0073	-0.0462	0.0165	0.9585
31.98	-1.3592	-4.4475	0.80063	1.6466	-1.4816	-5.6742	20.0868	770.9572	-51.4066	257.6128	49.0724	791.3486	-0.0592	0.0182	-0.0073	-0.0462	0.0165	0.9585
31.9914	-1.1996	-6.2208	0.80639	2.3514	-1.4149	-7.8248	26.2478	757.7608	-51.4205	253.5396	46.3468	769.9932	-0.0592	0.0182	-0.0073	-0.0462	0.0165	0.9585
32.0029	-0.59193	-7.5485	0.69571	2.8806	-1.0363	-9.4363	31.4115	742.8539	-52.0974	248.6893	44.6139	747.6723	-0.0592	0.0182	-0.0073	-0.0462	0.0165	0.9585
32.0143	0.68302	-7.6579	0.43815	2.9315	-0.21135	-9.5769	35.3908	727.9757	-53.3337	243.6727	43.84	726.2103	-0.0592	0.0182	-0.0073	-0.0462	0.0165	0.9585
32.0257	2.7643	-5.3754	-0.093374	2.0501	1.2679	-6.7941	38.1502	714.7761	-54.9952	239.0807	43.9105	707.2408	-0.0592	0.0182	-0.0073	-0.0462	0.0165	0.9585
32.0371	5.8342	0.77739	-0.95625	-0.33997	3.5454	0.71616	39.7951	704.6389	-56.9763	235.408	44.689	692.0976	-0.0592	0.0182	-0.0073	-0.0462	0.0165	0.9585
32.0486	9.8724	12.5882	-2.2487	-4.9275	6.7282	15.1809	40.5722	698.2928	-59.1004	232.9377	45.9156	681.3739	-0.0592	0.0182	-0.0073	-0.0462	0.0165	0.9585
32.06	14.7125	31.8333	-3.9967	-12.3987	10.7665	38.8058	40.8159	695.8012	-61.2182	231.7152	47.3303	675.0066	-0.0592	0.0182	-0.0073	-0.0462	0.0165	0.9585
32.0714	19.7452	59.8841	-6.1467	-23.2765	15.3405	73.3526	40.9226	696.3754	-63.0753	231.5065	48.5473	672.0447	-0.0592	0.0182	-0.0073	-0.0462	0.0165	0.9585
32.0829	23.8525	96.9685	-8.4882	-37.6363	19.7277	119.1225	41.186	698.5909	-64.4203	231.8558	49.2201	670.9889	-0.0592	0.0182	-0.0073	-0.0462	0.0165	0.9585
32.0943	25.2175	141.2344	-10.5455	-54.746	22.6255	173.9163	41.8315	700.5	-64.9743	232.1367	49.0039	669.8321	-0.0592	0.0182	-0.0073	-0.0462	0.0165	0.9585
32.1057	22.1336	188.294	-11.5453	-72.8846	22.4284	232.3667	42.8737	700.0175	-64.5136	231.671	47.6863	666.5316	-0.0592	0.0182	-0.0073	-0.0462	0.0165	0.9585
32.1171	14.8186	232.0002	-10.486	-89.6422	18.017	286.8945	44.2836	695.2255	-62.922	229.838	45.1832	659.2105	-0.0592	0.0182	-0.0073	-0.0462	0.0165	0.9585
32.1286	6.0405	267.0343	-6.7376	-102.9769	9.7997	330.7021	45.8965	684.7622	-60.2526	226.1891	41.6183	646.6017	-0.0592	0.0182	-0.0073	-0.0462	0.0165	0.9585
32.14	-2.2648	291.9776	-1.5522	-112.3798	0.037153	361.741	47.6065	667.8969	-56.7534	220.4762	37.2771	628.0099	-0.0592	0.0182	-0.0073	-0.0462	0.0165	0.9585
32.1514	-9.0104	308.5961	4.1945	-118.5704	-9.7605	381.9946	49.256	644.6178	-52.7382	212.6755	32.5131	603.4961	-0.0592	0.0182	-0.0073	-0.0462	0.0165	0.9585
32.1629	-14.0177	320.3742	9.9152	-122.908	-18.7679	395.8091	50.812	615.2805	-48.5041	202.8928	27.6377	573.4326	-0.0592	0.0182	-0.0073	-0.0462	0.0165	0.9585
32.1743	-17.4534	330.8489	15.0384	-126.7788	-26.3898	407.5604	52.0906	580.5341	-44.148	191.3359	22.8145	538.5503	-0.0592	0.0182	-0.0073	-0.0462	0.0165	0.9585
32.1857	-19.9206	342.7581	19.483	-131.2246	-32.6973	420.7667	53.0049	541.0045	-39.6731	178.2166	18.1096	499.5146	-0.0592	0.0182	-0.0073	-0.0462	0.0165	0.9585
32.1971	-21.8001	357.8078	22.9743	-136.8957	-37.5637	437.4146	53.2271	497.3115	-35.0004	163.7441	13.5704	457.0419	-0.0592	0.0182	-0.0073	-0.0462	0.0165	0.9585
32.2086	-23.4369	377.0599	25.8242	-144.1462	-41.4507	458.8726	52.5746	450.005	-30.1252	148.1045	9.2734	411.6923	-0.0592	0.0182	-0.0073	-0.0462	0.0165	0.9585
32.22	-24.8191	401.1665	28.2346	-153.1736	-44.642	485.8267	50.6798	399.7844	-25.1225	131.525	5.3873	364.2164	-0.0592	0.0182	-0.0073	-0.0462	0.0165	0.9585
32.2314	-25.9864	430.2719	30.7343	-163.9647	-47.7604	518.4615	47.465	347.5492	-20.1846	114.3011	2.0984	315.4102	-0.0592	0.0182	-0.0073	-0.0462	0.0165	0.9585
32.2429	-26.9092	463.829	33.8391	-176.2694	-51.4058	556.0189	42.8553	294.6792	-15.5313	96.8781	-0.4127	266.5553	-0.0592	0.0182	-0.0073	-0.0462	0.0165	0.9585
32.2543	-27.7917	500.8967	37.9466	-189.7011	-56.1141	597.3224	37.1719	242.7928	-11.3983	79.792	-2.0705	218.9969	-0.0592	0.0182	-0.0073	-0.0462	0.0165	0.9585
32.2657	-28.6158	540.5136	43.3201	-203.9039	-62.1699	641.1183	30.8061	193.7723	-7.9469	63.6532	-2.9011	174.3969	-0.0592	0.0182	-0.0073	-0.0462	0.0165	0.9585
32.2771	-29.2617	581.9643	49.6014	-218.647	-69.1603	686.4571	24.391	149.1786	-5.2527	48.9809	-3.0691	134.0031	-0.0592	0.0182	-0.0073	-0.0462	0.0165	0.9585
32.2886	-29.5336	624.3278	56.4553	-233.65	-76.6147	732.1784	18.3306	110.2385	-3.2797	36.1703	-2.7589	98.8953	-0.0592	0.0182	-0.0073	-0.0462	0.0165	0.9585
32.3	-29.2481	666.4509	63.1857	-248.5468	-83.6998	776.8906	13.0233	77.4874	-1.9026	25.4033	-2.2064	69.4262	-0.0592	0.0182	-0.0073	-0.0462	0.0165	0.9585
32.3114	-28.2396	706.7573	69.4	-262.798	-89.8899	818.786	8.5334	51.0695	-0.99202	16.7215	-1.5432	45.7506	-0.0592	0.0182	-0.0073	-0.0462	0.0165	0.9585
32.3229	-26.5227	743.3641	74.6737	-275.7422	-94.7114	855.7757	5.0036	30.6841	-0.42052	10.032	-0.91331	27.5126	-0.0592	0.0182	-0.0073	-0.0462	0.0165	0.9585
